<mxfile host="65bd71144e">
    <diagram id="7MkiVVNSI-1rawdLynNR" name="Page-1">
        <mxGraphModel dx="1246" dy="310" grid="1" gridSize="10" guides="1" tooltips="1" connect="1" arrows="1" fold="1" page="1" pageScale="1" pageWidth="827" pageHeight="1169" background="#ffffff" math="0" shadow="0">
            <root>
                <mxCell id="0"/>
                <mxCell id="1" parent="0"/>
                <mxCell id="4" value="" style="edgeStyle=none;html=1;strokeColor=#000000;" parent="1" source="2" target="3" edge="1">
                    <mxGeometry relative="1" as="geometry"/>
                </mxCell>
                <mxCell id="2" value="&lt;pre style=&quot;font-family: &amp;#34;jetbrains mono&amp;#34; , monospace ; font-size: 9.8pt&quot;&gt;&lt;div style=&quot;text-align: left&quot;&gt;&lt;pre style=&quot;text-align: center ; font-family: &amp;#34;jetbrains mono&amp;#34; , monospace ; font-size: 9.8pt&quot;&gt;&lt;div style=&quot;text-align: left&quot;&gt;&lt;b style=&quot;font-size: 9.8pt&quot;&gt;&lt;font color=&quot;#000000&quot;&gt;preprocess_step()&lt;/font&gt;&lt;/b&gt;&lt;/div&gt;&lt;div style=&quot;text-align: left&quot;&gt;&lt;span style=&quot;font-size: 9.8pt&quot;&gt;&lt;font color=&quot;#000000&quot;&gt;- get_valid_frames()&lt;/font&gt;&lt;/span&gt;&lt;/div&gt;&lt;div style=&quot;text-align: left&quot;&gt;&lt;span style=&quot;font-size: 9.8pt&quot;&gt;&lt;font color=&quot;#000000&quot;&gt;- self.dist&lt;/font&gt;&lt;/span&gt;&lt;/div&gt;&lt;/pre&gt;&lt;/div&gt;&lt;/pre&gt;" style="rounded=1;whiteSpace=wrap;html=1;fontColor=#f30;fillColor=#FFE6CC;labelBorderColor=none;shadow=0;sketch=0;glass=0;labelBackgroundColor=none;" parent="1" vertex="1">
                    <mxGeometry x="65" y="50" width="240" height="90" as="geometry"/>
                </mxCell>
                <mxCell id="6" value="" style="edgeStyle=none;html=1;strokeColor=#000000;" parent="1" source="3" target="5" edge="1">
                    <mxGeometry relative="1" as="geometry"/>
                </mxCell>
                <mxCell id="3" value="&lt;pre style=&quot;font-family: &amp;#34;jetbrains mono&amp;#34; , monospace ; font-size: 9.8pt&quot;&gt;&lt;div style=&quot;text-align: left&quot;&gt;&lt;b style=&quot;font-size: 9.8pt ; white-space: normal ; background-color: rgb(255 , 255 , 255)&quot;&gt;&lt;font color=&quot;#000000&quot;&gt;populate_source_cache(frames)&lt;/font&gt;&lt;/b&gt;&lt;/div&gt;&lt;span style=&quot;background-color: rgb(255 , 255 , 255)&quot;&gt;&lt;font color=&quot;#000000&quot;&gt;- pending_file_list = [abs_path]&lt;/font&gt;&lt;/span&gt;&lt;/pre&gt;" style="whiteSpace=wrap;html=1;rounded=1;fontColor=#F0F0F0;fillColor=#FFFFFF;labelBorderColor=none;shadow=0;sketch=0;glass=0;" parent="1" vertex="1">
                    <mxGeometry x="50" y="220" width="270" height="80" as="geometry"/>
                </mxCell>
                <mxCell id="8" value="" style="edgeStyle=none;html=1;strokeColor=#000000;" parent="1" source="5" target="7" edge="1">
                    <mxGeometry relative="1" as="geometry"/>
                </mxCell>
                <mxCell id="37" value="" style="edgeStyle=none;html=1;fontColor=#F0F0F0;strokeColor=#000000;" parent="1" source="5" target="36" edge="1">
                    <mxGeometry relative="1" as="geometry"/>
                </mxCell>
                <mxCell id="38" value="&lt;font color=&quot;#000000&quot;&gt;result&lt;/font&gt;" style="edgeLabel;html=1;align=center;verticalAlign=middle;resizable=0;points=[];fontColor=#F0F0F0;labelBackgroundColor=none;" parent="37" vertex="1" connectable="0">
                    <mxGeometry x="0.1" y="-3" relative="1" as="geometry">
                        <mxPoint as="offset"/>
                    </mxGeometry>
                </mxCell>
                <mxCell id="5" value="&lt;pre style=&quot;font-family: &amp;#34;jetbrains mono&amp;#34; , monospace ; font-size: 9.8pt&quot;&gt;&lt;div style=&quot;text-align: justify&quot;&gt;&lt;b style=&quot;font-size: 9.8pt ; white-space: normal&quot;&gt;&lt;font style=&quot;background-color: rgb(255 , 255 , 255)&quot; color=&quot;#000000&quot;&gt;cache_source(filename)&lt;/font&gt;&lt;/b&gt;&lt;/div&gt;&lt;div style=&quot;text-align: justify&quot;&gt;&lt;span style=&quot;font-size: 9.8pt ; white-space: normal ; background-color: rgb(255 , 255 , 255)&quot;&gt;&lt;font color=&quot;#000000&quot;&gt;- MAX_RESOURCE_FETCHES = 100&lt;/font&gt;&lt;/span&gt;&lt;/div&gt;&lt;div style=&quot;text-align: justify&quot;&gt;&lt;span style=&quot;font-size: 9.8pt ; white-space: normal ; background-color: rgb(255 , 255 , 255)&quot;&gt;&lt;font color=&quot;#000000&quot;&gt;- fetch_file() =&amp;gt; result&lt;/font&gt;&lt;/span&gt;&lt;/div&gt;&lt;div style=&quot;text-align: justify&quot;&gt;&lt;span style=&quot;font-size: 9.8pt ; white-space: normal ; background-color: rgb(255 , 255 , 255)&quot;&gt;&lt;font color=&quot;#000000&quot;&gt;- cache.add(filename, body, encoding)&lt;/font&gt;&lt;/span&gt;&lt;/div&gt;&lt;/pre&gt;" style="whiteSpace=wrap;html=1;rounded=1;fontColor=#F0F0F0;align=center;fillColor=#FFFFFF;labelBorderColor=none;shadow=0;sketch=0;glass=0;" parent="1" vertex="1">
                    <mxGeometry x="10" y="350" width="350" height="120" as="geometry"/>
                </mxCell>
                <mxCell id="14" value="" style="edgeStyle=none;html=1;strokeColor=#000000;" parent="1" source="7" target="13" edge="1">
                    <mxGeometry relative="1" as="geometry"/>
                </mxCell>
                <mxCell id="7" value="&lt;pre style=&quot;font-family: &amp;#34;jetbrains mono&amp;#34; , monospace ; font-size: 9.8pt&quot;&gt;&lt;div style=&quot;text-align: justify&quot;&gt;&lt;b style=&quot;font-size: 9.8pt ; white-space: normal&quot;&gt;&lt;font color=&quot;#000000&quot; style=&quot;background-color: rgb(255 , 255 , 255)&quot;&gt;fetch_file(url, project, release, dist, allow_scraping): file&lt;/font&gt;&lt;/b&gt;&lt;/div&gt;&lt;div style=&quot;text-align: justify&quot;&gt;&lt;span style=&quot;font-size: 9.8pt ; white-space: normal ; background-color: rgb(255 , 255 , 255)&quot;&gt;&lt;font color=&quot;#000000&quot;&gt;- database &amp;gt; internet&lt;/font&gt;&lt;/span&gt;&lt;/div&gt;&lt;div style=&quot;text-align: justify&quot;&gt;&lt;span style=&quot;font-size: 9.8pt ; white-space: normal ; background-color: rgb(255 , 255 , 255)&quot;&gt;&lt;font color=&quot;#000000&quot;&gt;- cache two attempts separately&lt;/font&gt;&lt;/span&gt;&lt;/div&gt;&lt;div style=&quot;text-align: justify&quot;&gt;&lt;span style=&quot;font-size: 9.8pt ; white-space: normal ; background-color: rgb(255 , 255 , 255)&quot;&gt;&lt;font color=&quot;#000000&quot;&gt;- for source file and source maps&lt;/font&gt;&lt;/span&gt;&lt;/div&gt;&lt;/pre&gt;" style="whiteSpace=wrap;html=1;rounded=1;fontColor=#F0F0F0;align=center;fillColor=#FFFFFF;labelBorderColor=none;shadow=0;sketch=0;glass=0;" parent="1" vertex="1">
                    <mxGeometry x="540" y="360" width="510" height="110" as="geometry"/>
                </mxCell>
                <mxCell id="12" value="" style="edgeStyle=none;html=1;strokeColor=#000000;" parent="1" source="9" target="11" edge="1">
                    <mxGeometry relative="1" as="geometry"/>
                </mxCell>
                <mxCell id="18" value="2" style="edgeLabel;html=1;align=center;verticalAlign=middle;resizable=0;points=[];labelBackgroundColor=none;fontColor=#000000;" parent="12" vertex="1" connectable="0">
                    <mxGeometry x="-0.2533" y="3" relative="1" as="geometry">
                        <mxPoint as="offset"/>
                    </mxGeometry>
                </mxCell>
                <mxCell id="9" value="&lt;pre style=&quot;font-family: &amp;#34;jetbrains mono&amp;#34; , monospace ; font-size: 9.8pt&quot;&gt;&lt;pre style=&quot;font-family: &amp;#34;jetbrains mono&amp;#34; , monospace ; font-size: 9.8pt&quot;&gt;&lt;div style=&quot;text-align: justify&quot;&gt;&lt;b style=&quot;font-size: 9.8pt ; white-space: normal&quot;&gt;&lt;font color=&quot;#000000&quot; style=&quot;background-color: rgb(255 , 255 , 255)&quot;&gt;fetch_release_artifact(url, release, dist)&lt;/font&gt;&lt;/b&gt;&lt;/div&gt;&lt;font color=&quot;#000000&quot; style=&quot;background-color: rgb(255 , 255 , 255)&quot;&gt;&lt;div style=&quot;text-align: justify&quot;&gt;&lt;span style=&quot;font-size: 9.8pt ; white-space: normal&quot;&gt;- 1. cache.get(cache_key) &amp;gt; result_from_cache(url, result)&lt;/span&gt;&lt;/div&gt;&lt;div style=&quot;text-align: justify&quot;&gt;&lt;span style=&quot;font-size: 9.8pt ; white-space: normal&quot;&gt;- 2. &lt;/span&gt;&lt;span style=&quot;font-size: 9.8pt ; white-space: normal&quot;&gt;fetch_and_cache_artifact(url,lambda,cache_key,cache_key_meta,headers,compress_fn)&lt;/span&gt;&lt;/div&gt;&lt;/font&gt;&lt;div style=&quot;text-align: justify&quot;&gt;&lt;font color=&quot;#000000&quot; style=&quot;background-color: rgb(255 , 255 , 255)&quot;&gt;&lt;span style=&quot;font-size: 9.8pt ; white-space: normal&quot;&gt;- 3. fetch_release_file(url&lt;/span&gt;&lt;span style=&quot;font-size: 9.8pt ; white-space: normal&quot;&gt;, &lt;/span&gt;&lt;span style=&quot;font-size: 9.8pt ; white-space: normal&quot;&gt;release&lt;/span&gt;&lt;span style=&quot;font-size: 9.8pt ; white-space: normal&quot;&gt;, &lt;/span&gt;&lt;span style=&quot;font-size: 9.8pt ; white-space: normal&quot;&gt;dist)&lt;/span&gt;&lt;/font&gt;&lt;/div&gt;&lt;/pre&gt;&lt;/pre&gt;" style="whiteSpace=wrap;html=1;rounded=1;fontStyle=0;fontColor=#F0F0F0;align=center;fillColor=#FFFFFF;labelBorderColor=none;shadow=0;sketch=0;glass=0;" parent="1" vertex="1">
                    <mxGeometry x="1358" y="205" width="712" height="115" as="geometry"/>
                </mxCell>
                <mxCell id="23" value="" style="edgeStyle=none;html=1;strokeColor=#000000;" parent="1" source="11" target="22" edge="1">
                    <mxGeometry relative="1" as="geometry"/>
                </mxCell>
                <mxCell id="11" value="&lt;pre style=&quot;font-family: &amp;#34;jetbrains mono&amp;#34; , monospace ; font-size: 9.8pt&quot;&gt;&lt;pre style=&quot;font-family: &amp;#34;jetbrains mono&amp;#34; , monospace ; font-size: 9.8pt&quot;&gt;&lt;pre style=&quot;font-family: &amp;#34;jetbrains mono&amp;#34; , monospace ; font-size: 9.8pt&quot;&gt;&lt;div style=&quot;text-align: justify&quot;&gt;&lt;font color=&quot;#000000&quot; style=&quot;background-color: rgb(255 , 255 , 255)&quot;&gt;&lt;span style=&quot;font-size: 9.8pt ; white-space: normal&quot;&gt;fetch_release_archive_for_url&lt;/span&gt;&lt;span style=&quot;font-size: 9.8pt ; white-space: normal&quot;&gt;(release&lt;/span&gt;&lt;span style=&quot;font-size: 9.8pt ; white-space: normal&quot;&gt;, &lt;/span&gt;&lt;span style=&quot;font-size: 9.8pt ; white-space: normal&quot;&gt;dist&lt;/span&gt;&lt;span style=&quot;font-size: 9.8pt ; white-space: normal&quot;&gt;, &lt;/span&gt;&lt;span style=&quot;font-size: 9.8pt ; white-space: normal&quot;&gt;url): _file&lt;/span&gt;&lt;/font&gt;&lt;/div&gt;&lt;div style=&quot;text-align: justify&quot;&gt;&lt;span style=&quot;font-size: 9.8pt ; white-space: normal ; background-color: rgb(255 , 255 , 255)&quot;&gt;&lt;font color=&quot;#000000&quot;&gt;- get_index_entry(release, dist, url) =&amp;gt; index_info =&amp;gt; archive_ident&lt;/font&gt;&lt;/span&gt;&lt;/div&gt;&lt;div style=&quot;text-align: justify&quot;&gt;&lt;span style=&quot;font-size: 9.8pt ; white-space: normal ; background-color: rgb(255 , 255 , 255)&quot;&gt;&lt;font color=&quot;#000000&quot;&gt;- get_release_file_cache_key(release_id, archive_ident) =&amp;gt; cache_key&lt;/font&gt;&lt;/span&gt;&lt;/div&gt;&lt;div style=&quot;text-align: justify&quot;&gt;&lt;span style=&quot;font-size: 9.8pt ; white-space: normal ; background-color: rgb(255 , 255 , 255)&quot;&gt;&lt;font color=&quot;#000000&quot;&gt;- fetch_retry_policy() =&amp;gt; _file&lt;/font&gt;&lt;/span&gt;&lt;/div&gt;&lt;div style=&quot;text-align: justify&quot;&gt;&lt;span style=&quot;font-size: 9.8pt ; white-space: normal ; background-color: rgb(255 , 255 , 255)&quot;&gt;&lt;font color=&quot;#000000&quot;&gt;- cache_set(cache_key, _file_read())&lt;/font&gt;&lt;/span&gt;&lt;/div&gt;&lt;/pre&gt;&lt;/pre&gt;&lt;/pre&gt;" style="whiteSpace=wrap;html=1;rounded=1;fontStyle=0;fontColor=#F0F0F0;fillColor=#FFFFFF;labelBorderColor=none;shadow=0;sketch=0;glass=0;" parent="1" vertex="1">
                    <mxGeometry x="1770" y="550" width="580" height="110" as="geometry"/>
                </mxCell>
                <mxCell id="16" style="edgeStyle=none;html=1;exitX=1;exitY=0;exitDx=0;exitDy=0;entryX=0;entryY=0.5;entryDx=0;entryDy=0;strokeColor=#000000;" parent="1" source="13" target="9" edge="1">
                    <mxGeometry relative="1" as="geometry"/>
                </mxCell>
                <mxCell id="17" value="N" style="edgeLabel;html=1;align=center;verticalAlign=middle;resizable=0;points=[];" parent="16" vertex="1" connectable="0">
                    <mxGeometry x="-0.104" relative="1" as="geometry">
                        <mxPoint x="1" as="offset"/>
                    </mxGeometry>
                </mxCell>
                <mxCell id="29" value="" style="edgeStyle=none;html=1;fontColor=#ef613e;strokeColor=#000000;" parent="1" source="13" target="35" edge="1">
                    <mxGeometry relative="1" as="geometry">
                        <mxPoint x="605.5" y="725" as="targetPoint"/>
                    </mxGeometry>
                </mxCell>
                <mxCell id="33" value="1. 未配置 release&lt;br&gt;2. 在 release artifact&amp;nbsp; 内找不到源文件" style="edgeLabel;html=1;align=center;verticalAlign=middle;resizable=0;points=[];fontColor=#000000;labelBackgroundColor=none;" parent="29" vertex="1" connectable="0">
                    <mxGeometry x="-0.225" y="4" relative="1" as="geometry">
                        <mxPoint as="offset"/>
                    </mxGeometry>
                </mxCell>
                <mxCell id="13" value="&lt;font color=&quot;#000000&quot; style=&quot;background-color: rgb(255 , 255 , 255)&quot;&gt;release result is None?&lt;/font&gt;" style="rhombus;whiteSpace=wrap;html=1;rounded=1;fillColor=#FFFFFF;" parent="1" vertex="1">
                    <mxGeometry x="1190" y="380" width="80" height="80" as="geometry"/>
                </mxCell>
                <mxCell id="19" value="&lt;pre style=&quot;font-size: 9.8pt ; font-family: &amp;#34;jetbrains mono&amp;#34; , monospace&quot;&gt;&lt;div style=&quot;text-align: justify&quot;&gt;&lt;span style=&quot;font-size: 9.8pt ; white-space: normal ; background-color: rgb(255 , 255 , 255)&quot;&gt;&lt;b&gt;&lt;font color=&quot;#000000&quot;&gt;fetch_and_cache_artifact(): result&lt;/font&gt;&lt;/b&gt;&lt;/span&gt;&lt;/div&gt;&lt;font color=&quot;#000000&quot; style=&quot;background-color: rgb(255 , 255 , 255)&quot;&gt;&lt;font&gt;&lt;div style=&quot;text-align: justify&quot;&gt;&lt;span style=&quot;font-size: 9.8pt ; white-space: normal&quot;&gt;- CACHE_MAX_VALUE_SIZE&lt;/span&gt;&lt;/div&gt;&lt;/font&gt;&lt;font&gt;&lt;div style=&quot;text-align: justify&quot;&gt;&lt;span style=&quot;font-size: 9.8pt ; white-space: normal&quot;&gt;- cache.set(cache_key&lt;/span&gt;&lt;span style=&quot;font-size: 9.8pt ; white-space: normal&quot;&gt;, &lt;/span&gt;&lt;span style=&quot;font-size: 9.8pt ; white-space: normal&quot;&gt;(headers&lt;/span&gt;&lt;span style=&quot;font-size: 9.8pt ; white-space: normal&quot;&gt;, &lt;/span&gt;&lt;span style=&quot;font-size: 9.8pt ; white-space: normal&quot;&gt;z_body&lt;/span&gt;&lt;span style=&quot;font-size: 9.8pt ; white-space: normal&quot;&gt;, &lt;/span&gt;&lt;span style=&quot;font-size: 9.8pt ; white-space: normal&quot;&gt;200&lt;/span&gt;&lt;span style=&quot;font-size: 9.8pt ; white-space: normal&quot;&gt;, &lt;/span&gt;&lt;span style=&quot;font-size: 9.8pt ; white-space: normal&quot;&gt;encoding)&lt;/span&gt;&lt;span style=&quot;font-size: 9.8pt ; white-space: normal&quot;&gt;, &lt;/span&gt;&lt;span style=&quot;font-size: 9.8pt ; white-space: normal&quot;&gt;3600&lt;/span&gt;&lt;span style=&quot;font-size: 9.8pt ; white-space: normal&quot;&gt;)&lt;/span&gt;&lt;/div&gt;&lt;div style=&quot;text-align: justify&quot;&gt;&lt;font style=&quot;font-size: 9.8pt ; white-space: normal&quot;&gt;- cache.set(cache_key_meta&lt;span style=&quot;font-size: 9.8pt&quot;&gt;, &lt;/span&gt;&lt;span style=&quot;font-size: 9.8pt&quot;&gt;{&lt;/span&gt;&lt;span style=&quot;font-size: 9.8pt&quot;&gt;&quot;compressed_size&quot;&lt;/span&gt;&lt;span style=&quot;font-size: 9.8pt&quot;&gt;: &lt;/span&gt;&lt;span style=&quot;font-size: 9.8pt&quot;&gt;len&lt;/span&gt;&lt;span style=&quot;font-size: 9.8pt&quot;&gt;(z_body)}&lt;/span&gt;&lt;span style=&quot;font-size: 9.8pt&quot;&gt;, &lt;/span&gt;&lt;span style=&quot;font-size: 9.8pt&quot;&gt;3600&lt;/span&gt;&lt;/font&gt;&lt;span style=&quot;font-size: 9.8pt ; white-space: normal&quot;&gt;)&lt;/span&gt;&lt;/div&gt;&lt;/font&gt;&lt;font&gt;&lt;div style=&quot;text-align: justify&quot;&gt;&lt;font style=&quot;font-size: 9.8pt ; white-space: normal&quot;&gt;- http.UrlResult(filename&lt;/font&gt;&lt;span style=&quot;font-size: 9.8pt ; white-space: normal&quot;&gt;, &lt;/span&gt;&lt;span style=&quot;font-size: 9.8pt ; white-space: normal&quot;&gt;headers&lt;/span&gt;&lt;span style=&quot;font-size: 9.8pt ; white-space: normal&quot;&gt;, &lt;/span&gt;&lt;span style=&quot;font-size: 9.8pt ; white-space: normal&quot;&gt;body&lt;/span&gt;&lt;span style=&quot;font-size: 9.8pt ; white-space: normal&quot;&gt;, &lt;/span&gt;&lt;span style=&quot;font-size: 9.8pt ; white-space: normal&quot;&gt;200&lt;/span&gt;&lt;span style=&quot;font-size: 9.8pt ; white-space: normal&quot;&gt;, &lt;/span&gt;&lt;span style=&quot;font-size: 9.8pt ; white-space: normal&quot;&gt;encoding)&lt;/span&gt;&lt;/div&gt;&lt;/font&gt;&lt;/font&gt;&lt;/pre&gt;" style="whiteSpace=wrap;html=1;rounded=1;fontStyle=0;fontColor=#F0F0F0;fillColor=#FFFFFF;labelBorderColor=none;shadow=0;sketch=0;glass=0;" parent="1" vertex="1">
                    <mxGeometry x="2790" y="547.5" width="535" height="112.5" as="geometry"/>
                </mxCell>
                <mxCell id="24" value="" style="edgeStyle=none;html=1;exitX=1;exitY=0.5;exitDx=0;exitDy=0;entryX=0;entryY=0.5;entryDx=0;entryDy=0;strokeColor=#000000;" parent="1" source="22" target="19" edge="1">
                    <mxGeometry relative="1" as="geometry"/>
                </mxCell>
                <mxCell id="46" value="N" style="edgeLabel;html=1;align=center;verticalAlign=middle;resizable=0;points=[];fontSize=12;fontFamily=Helvetica;fontColor=#000000;labelBackgroundColor=none;" vertex="1" connectable="0" parent="24">
                    <mxGeometry x="-0.2888" y="-1" relative="1" as="geometry">
                        <mxPoint as="offset"/>
                    </mxGeometry>
                </mxCell>
                <mxCell id="26" value="" style="edgeStyle=none;html=1;strokeColor=#000000;" parent="1" source="22" target="25" edge="1">
                    <mxGeometry relative="1" as="geometry"/>
                </mxCell>
                <mxCell id="27" value="Y" style="edgeLabel;html=1;align=center;verticalAlign=middle;resizable=0;points=[];labelBackgroundColor=none;fontColor=#000000;" parent="26" vertex="1" connectable="0">
                    <mxGeometry x="-0.1556" relative="1" as="geometry">
                        <mxPoint as="offset"/>
                    </mxGeometry>
                </mxCell>
                <mxCell id="22" value="&lt;font color=&quot;#000000&quot; style=&quot;background-color: rgb(255 , 255 , 255)&quot;&gt;_file is None?&lt;/font&gt;" style="rhombus;whiteSpace=wrap;html=1;rounded=1;fontStyle=0;fontColor=#F0F0F0;fillColor=#FFFFFF;labelBorderColor=none;shadow=0;sketch=0;glass=0;" parent="1" vertex="1">
                    <mxGeometry x="2520" y="565" width="80" height="80" as="geometry"/>
                </mxCell>
                <mxCell id="25" value="&lt;pre style=&quot;font-family: &amp;#34;jetbrains mono&amp;#34; , monospace ; font-size: 9.8pt&quot;&gt;&lt;div style=&quot;text-align: justify&quot;&gt;&lt;b style=&quot;font-size: 9.8pt ; white-space: normal&quot;&gt;&lt;font color=&quot;#000000&quot; style=&quot;background-color: rgb(255 , 255 , 255)&quot;&gt;fetch_release_file()&lt;/font&gt;&lt;/b&gt;&lt;/div&gt;&lt;div style=&quot;text-align: justify&quot;&gt;&lt;span style=&quot;font-size: 9.8pt ; white-space: normal ; background-color: rgb(255 , 255 , 255)&quot;&gt;&lt;font color=&quot;#000000&quot;&gt;- from database&lt;/font&gt;&lt;/span&gt;&lt;/div&gt;&lt;div style=&quot;text-align: justify&quot;&gt;&lt;span style=&quot;font-size: 9.8pt ; white-space: normal ; background-color: rgb(255 , 255 , 255)&quot;&gt;&lt;font color=&quot;#000000&quot;&gt;- ReleaseFile.objects.filter() =&amp;gt; possible_files&lt;/font&gt;&lt;/span&gt;&lt;/div&gt;&lt;/pre&gt;" style="whiteSpace=wrap;html=1;rounded=1;fontStyle=0;fontColor=#F0F0F0;align=center;fillColor=#FFFFFF;labelBorderColor=none;shadow=0;sketch=0;glass=0;" parent="1" vertex="1">
                    <mxGeometry x="2350" y="780" width="425" height="80" as="geometry"/>
                </mxCell>
                <mxCell id="35" value="&lt;div style=&quot;text-align: justify&quot;&gt;&lt;span style=&quot;background-color: rgb(255 , 255 , 255)&quot;&gt;&lt;font color=&quot;#000000&quot;&gt;1. cache_get(cache_key)&amp;nbsp;&lt;/font&gt;&lt;/span&gt;&lt;/div&gt;&lt;div style=&quot;text-align: justify&quot;&gt;&lt;span style=&quot;background-color: rgb(255 , 255 , 255)&quot;&gt;&lt;font color=&quot;#000000&quot;&gt;- cache hit =&amp;gt; http.UrlResult()&lt;/font&gt;&lt;/span&gt;&lt;/div&gt;&lt;div style=&quot;text-align: justify&quot;&gt;&lt;span style=&quot;background-color: rgb(255 , 255 , 255)&quot;&gt;&lt;font color=&quot;#000000&quot;&gt;- else =&amp;gt; http.fetch_file() =&amp;gt; cache.set()&lt;/font&gt;&lt;/span&gt;&lt;/div&gt;&lt;div style=&quot;text-align: justify&quot;&gt;&lt;span style=&quot;background-color: rgb(255 , 255 , 255)&quot;&gt;&lt;font color=&quot;#000000&quot;&gt;2. 源文件合法性检验&lt;/font&gt;&lt;/span&gt;&lt;/div&gt;" style="whiteSpace=wrap;html=1;rounded=1;fontStyle=0;fillColor=#FFFFFF;fontColor=#F0F0F0;labelBorderColor=none;shadow=0;sketch=0;glass=0;" parent="1" vertex="1">
                    <mxGeometry x="1358" y="590" width="290" height="80" as="geometry"/>
                </mxCell>
                <mxCell id="40" value="" style="edgeStyle=none;html=1;fontColor=#FFFFFF;strokeColor=#000000;" parent="1" source="36" target="39" edge="1">
                    <mxGeometry relative="1" as="geometry"/>
                </mxCell>
                <mxCell id="45" value="" style="edgeStyle=orthogonalEdgeStyle;html=1;fontColor=#FFFFFF;strokeColor=#000000;" parent="1" source="36" target="44" edge="1">
                    <mxGeometry relative="1" as="geometry"/>
                </mxCell>
                <mxCell id="36" value="&lt;pre style=&quot;font-family: &amp;#34;jetbrains mono&amp;#34; , monospace ; font-size: 9.8pt&quot;&gt;&lt;div style=&quot;text-align: justify&quot;&gt;&lt;span style=&quot;font-size: 9.8pt ; background-color: rgb(255 , 255 , 255)&quot;&gt;&lt;font color=&quot;#000000&quot;&gt;&lt;font style=&quot;font-weight: bold&quot;&gt;discover_sourcemap(result) =&amp;gt; sourcemap_url&lt;br&gt;&lt;/font&gt;- result.headers.get('sourcemap') =&amp;gt; sourcemap&lt;/font&gt;&lt;/span&gt;&lt;/div&gt;&lt;div style=&quot;text-align: justify&quot;&gt;&lt;span style=&quot;font-size: 9.8pt ; background-color: rgb(255 , 255 , 255)&quot;&gt;&lt;font color=&quot;#000000&quot;&gt;- force_bytes(sourcemap) =&amp;gt; sourcemap&lt;/font&gt;&lt;/span&gt;&lt;/div&gt;&lt;div style=&quot;text-align: justify&quot;&gt;&lt;font style=&quot;background-color: rgb(255 , 255 , 255)&quot; color=&quot;#000000&quot;&gt;&lt;span style=&quot;font-size: 9.8pt&quot;&gt;- read `&lt;/span&gt;&lt;span style=&quot;font-family: &amp;#34;jetbrains mono&amp;#34; , monospace ; font-size: 9.8pt ; text-align: center&quot;&gt;sourceMappingURL&lt;/span&gt;&lt;span style=&quot;font-size: 9.8pt&quot;&gt;`&lt;/span&gt;&lt;/font&gt;&lt;/div&gt;&lt;div style=&quot;text-align: justify&quot;&gt;&lt;span style=&quot;background-color: rgb(255 , 255 , 255)&quot;&gt;&lt;font color=&quot;#000000&quot;&gt;- handle `sourceMappingURL=app.js.map/*ascii...*/`(react-native)&lt;/font&gt;&lt;/span&gt;&lt;/div&gt;&lt;/pre&gt;" style="whiteSpace=wrap;html=1;rounded=1;strokeColor=default;fillColor=#FFFFFF;fontColor=#F0F0F0;labelBorderColor=none;shadow=0;sketch=0;glass=0;" parent="1" vertex="1">
                    <mxGeometry x="-69.87" y="565" width="509.75" height="115" as="geometry"/>
                </mxCell>
                <mxCell id="42" value="" style="edgeStyle=none;html=1;fontColor=#FFFFFF;strokeColor=#000000;" parent="1" source="39" target="41" edge="1">
                    <mxGeometry relative="1" as="geometry"/>
                </mxCell>
                <mxCell id="39" value="&lt;pre style=&quot;font-family: &amp;#34;jetbrains mono&amp;#34; , monospace ; font-size: 9.8pt&quot;&gt;&lt;div style=&quot;text-align: justify&quot;&gt;&lt;span style=&quot;font-size: 9.8pt&quot;&gt;&lt;font style=&quot;font-weight: bold ; background-color: rgb(255 , 255 , 255)&quot; color=&quot;#000000&quot;&gt;sourcemaps.link(filename, sourcemap_url)&lt;/font&gt;&lt;span style=&quot;background-color: rgb(43 , 43 , 43)&quot;&gt;&lt;br&gt;&lt;/span&gt;&lt;/span&gt;&lt;/div&gt;&lt;/pre&gt;" style="whiteSpace=wrap;html=1;rounded=1;strokeColor=default;fillColor=#FFFFFF;fontColor=#F0F0F0;labelBorderColor=none;shadow=0;sketch=0;glass=0;" parent="1" vertex="1">
                    <mxGeometry x="15.069999999999993" y="750" width="339.87" height="60" as="geometry"/>
                </mxCell>
                <mxCell id="43" style="edgeStyle=orthogonalEdgeStyle;html=1;fontColor=#000000;entryX=0.25;entryY=1;entryDx=0;entryDy=0;labelBackgroundColor=none;strokeColor=#000000;" parent="1" source="41" target="7" edge="1">
                    <mxGeometry relative="1" as="geometry">
                        <mxPoint x="610" y="770" as="targetPoint"/>
                    </mxGeometry>
                </mxCell>
                <mxCell id="41" value="&lt;pre style=&quot;font-size: 9.8pt&quot;&gt;&lt;div style=&quot;text-align: justify&quot;&gt;&lt;span style=&quot;font-size: 9.8pt ; background-color: rgb(255 , 255 , 255)&quot;&gt;&lt;font style=&quot;font-weight: bold&quot;&gt;&lt;font face=&quot;jetbrains mono, monospace&quot; color=&quot;#000000&quot;&gt;fetch_sourcemap(url,project,release,dist,allow_scraping)&lt;/font&gt;&lt;/font&gt;&lt;/span&gt;&lt;/div&gt;&lt;div style=&quot;text-align: justify&quot;&gt;&lt;font face=&quot;jetbrains mono, monospace&quot; style=&quot;background-color: rgb(255 , 255 , 255)&quot; color=&quot;#000000&quot;&gt;- base64.b64decode(url)&lt;/font&gt;&lt;/div&gt;&lt;div style=&quot;text-align: justify&quot;&gt;&lt;font face=&quot;jetbrains mono, monospace&quot; style=&quot;background-color: rgb(255 , 255 , 255)&quot; color=&quot;#000000&quot;&gt;- SourceMapView.from_json_bytes(body)&lt;/font&gt;&lt;/div&gt;&lt;/pre&gt;" style="whiteSpace=wrap;html=1;rounded=1;strokeColor=default;fillColor=#FFFFFF;fontColor=#F0F0F0;labelBorderColor=none;shadow=0;sketch=0;glass=0;" parent="1" vertex="1">
                    <mxGeometry x="-37.46" y="890" width="444.93" height="60" as="geometry"/>
                </mxCell>
                <mxCell id="44" value="&lt;pre style=&quot;font-family: &amp;#34;jetbrains mono&amp;#34; , monospace ; font-size: 9.8pt&quot;&gt;&lt;div style=&quot;text-align: justify&quot;&gt;&lt;b&gt;&lt;font color=&quot;#000000&quot; style=&quot;background-color: rgb(255 , 255 , 255)&quot;&gt;non_standard_url_join(base, to_join)&lt;/font&gt;&lt;/b&gt;&lt;/div&gt;&lt;/pre&gt;" style="whiteSpace=wrap;html=1;rounded=1;strokeColor=default;fillColor=#FFFFFF;fontColor=#F0F0F0;labelBorderColor=none;shadow=0;sketch=0;glass=0;" parent="1" vertex="1">
                    <mxGeometry x="-500" y="592.5" width="350.13" height="60" as="geometry"/>
                </mxCell>
            </root>
        </mxGraphModel>
    </diagram>
</mxfile>